<svg width="550" height="469" viewBox="0 0 550 469" fill="none" xmlns="http://www.w3.org/2000/svg">
<path fill-rule="evenodd" clip-rule="evenodd" d="M299.963 0.108262C343.049 -1.30402 384.815 11.1816 421.197 32.844C459.469 55.6319 489.605 87.2747 510.043 125.192C533.503 168.718 560.633 217.191 545.742 263.911C530.771 310.879 473.499 329.836 434.422 362.443C389.486 399.939 360.144 468.416 299.963 468.997C239.858 469.576 213.227 396.651 163.477 365.057C111.055 331.766 17.1311 337.391 2.01656 279.786C-13.4351 220.896 63.789 178.035 101.465 128.716C126.448 96.014 149.433 63.4714 184.742 40.5946C219.324 18.189 257.939 1.48575 299.963 0.108262Z" fill="#D9BD32"/>
</svg>
